<svg xmlns="http://www.w3.org/2000/svg" xmlns:xlink="http://www.w3.org/1999/xlink" viewBox="0,0,256,256" width="30px" height="30px" fill-rule="nonzero"><g fill="none" fill-rule="nonzero" stroke="none" stroke-width="1" stroke-linecap="butt" stroke-linejoin="miter" stroke-miterlimit="10" stroke-dasharray="" stroke-dashoffset="0" font-family="none" font-weight="none" font-size="none" text-anchor="none" style="mix-blend-mode: normal"><g transform="scale(16,16)"><path d="M6.6,14.5c-0.8,0 -1.6,-0.4 -1.9,-1.1l-0.9,-1.7c-0.1,-0.1 -0.3,-0.6 -0.3,-1c0,-0.8 0.3,-1.3 0.8,-1.7l0.2,-0.1v-6.4c0,-0.6 0.4,-1 1,-1c0.6,0 1,0.4 1,1v3.8l0.8,-0.6c0.1,-0.1 0.2,-0.2 0.4,-0.2c0.3,0 0.6,0.2 0.7,0.5l0.3,0.7l0.5,-0.5c0.2,-0.1 0.3,-0.2 0.6,-0.2c0.3,0 0.6,0.2 0.7,0.5l0.3,0.7l0.5,-0.5c0.1,-0.1 0.3,-0.2 0.5,-0.2c0.4,0 0.8,0.3 0.8,0.8v5.3c0,1.1 -0.9,2 -2.1,2h-3.9z" fill="#ffffff"></path><path d="M5.5,2c0.3,0 0.5,0.2 0.5,0.5v2.8v2l1.6,-1.2c0.1,-0.1 0.1,-0.1 0.2,-0.1c0.1,0 0.2,0.1 0.2,0.2l0.5,1.4l1.1,-1c0,0 0.1,-0.1 0.2,-0.1c0.1,0 0.2,0.1 0.2,0.2l0.5,1.4l1.1,-1c0,0 0.1,-0.1 0.2,-0.1c0.1,0 0.2,0.1 0.2,0.3v0.3v5c0,0.8 -0.7,1.5 -1.6,1.5h-3.8h-0.1c-0.6,0 -1.1,-0.3 -1.4,-0.8l-0.9,-1.7c-0.1,-0.5 -0.2,-0.8 -0.2,-1c0,-0.8 0.3,-1.1 0.6,-1.3l0.4,-0.3v-0.5v-6c0,-0.3 0.2,-0.5 0.5,-0.5M5.5,1c-0.8,0 -1.5,0.7 -1.5,1.5c0,0.1 0,6 0,6c-0.6,0.4 -1,1.1 -1,2.1c0,0.5 0.2,1.1 0.3,1.3l0.9,1.7c0.4,0.9 1.3,1.4 2.3,1.4c0,0 0,0 0.1,0c0.4,0 3.9,0 3.9,0c1.4,0 2.6,-1.1 2.6,-2.5v-5v-0.2c-0.1,-0.7 -0.7,-1.3 -1.3,-1.3c-0.3,0 -0.6,0.1 -0.8,0.3c-0.2,-0.5 -0.6,-0.8 -1.2,-0.8c-0.3,0 -0.6,0.1 -0.8,0.3c-0.3,-0.5 -0.7,-0.8 -1.2,-0.8c-0.3,0 -0.6,0.1 -0.8,0.3c0,-1.5 0,-2.6 0,-2.8c0,-0.8 -0.7,-1.5 -1.5,-1.5z" fill="#000000"></path><path d="M6,9h1v3h-1zM8,9h1v3h-1zM10,9h1v3h-1z" fill="#000000"></path></g></g></svg>